<svg width="60" height="60" viewBox="0 0 60 60" fill="none" xmlns="http://www.w3.org/2000/svg">
<path d="M53.3221 4.55664H6.67789C4.33592 4.55655 2.4375 6.45506 2.4375 8.79703V42.7201C2.4375 45.062 4.33598 46.9605 6.67789 46.9605H22.6933L26.3188 53.3052C27.939 56.1389 32.0193 56.1561 33.6633 53.3361C33.6693 53.3258 33.6753 53.3155 33.6812 53.3052L37.3067 46.9605H53.3221C55.6639 46.9604 57.5625 45.0619 57.5625 42.7201V8.79703C57.5625 6.45514 55.664 4.55664 53.3221 4.55664ZM18.3389 28.9389C15.8908 28.939 14.3607 26.2888 15.5847 24.1686C16.8086 22.0483 19.8689 22.0482 21.0931 24.1683C21.3723 24.6518 21.5192 25.2003 21.5192 25.7586C21.5192 27.5149 20.0953 28.9388 18.3389 28.9389ZM30 28.9389C27.5518 28.939 26.0217 26.2888 27.2457 24.1686C28.4697 22.0483 31.53 22.0482 32.7541 24.1683C33.0333 24.6518 33.1803 25.2003 33.1803 25.7586C33.1803 27.5149 31.7564 28.9388 30 28.9389ZM41.6611 28.9389C39.2129 28.939 37.6828 26.2888 38.9068 24.1686C40.1308 22.0483 43.191 22.0482 44.4152 24.1683C44.6944 24.6518 44.8413 25.2003 44.8413 25.7586C44.8413 27.5149 43.4174 28.9388 41.6611 28.9389Z" fill="white"/>
</svg>
