<svg width="60" height="60" viewBox="0 0 60 60" fill="none" xmlns="http://www.w3.org/2000/svg">
<path fill-rule="evenodd" clip-rule="evenodd" d="M58.927 21.1774C58.8272 14.3972 54.9885 7.72 49.0823 4.96792C46.081 3.56929 42.6002 3.22095 38.9703 4.3732C35.9469 5.3329 32.9187 7.29982 29.9988 10.3923C27.0789 7.29982 24.0509 5.3329 21.0274 4.3732C17.3975 3.22095 13.9167 3.56929 10.9152 4.96792C5.00931 7.72 1.17077 14.3972 1.07055 21.1774L1.07031 21.2091C1.07031 31.0983 6.95155 39.8596 13.1802 46.0087C16.3243 49.1124 19.6431 51.6388 22.5382 53.4028C23.9848 54.284 25.3545 54.9928 26.568 55.4878C27.7272 55.961 28.9368 56.3206 29.9988 56.3206C31.0609 56.3206 32.2704 55.961 33.4297 55.4878C34.6432 54.9928 36.0129 54.284 37.4595 53.4028C40.3546 51.6388 43.6733 49.1124 46.8177 46.0087C53.0462 39.8596 58.9275 31.0983 58.9275 21.2091L58.927 21.1774Z" fill="white"/>
</svg>
