<svg width="60" height="60" viewBox="0 0 60 60" fill="none" xmlns="http://www.w3.org/2000/svg">
<path d="M53.6088 23.6855L49.4338 48.6855C49.1519 50.4245 48.2669 52.0087 46.9338 53.1605C45.5143 54.2947 43.7509 54.9119 41.9338 54.9105H17.9088C16.1521 54.8951 14.4566 54.2634 13.1179 53.1258C11.7793 51.9882 10.8824 50.4167 10.5838 48.6855L6.40884 23.6855C6.18274 22.243 6.38258 20.766 6.98384 19.4355C7.5849 18.1118 8.55768 16.9914 9.78384 16.2105L25.9838 6.21048C27.1674 5.48039 28.5307 5.09375 29.9213 5.09375C31.312 5.09375 32.6753 5.48039 33.8588 6.21048L50.0338 16.2105C51.3013 16.9605 52.3113 18.078 52.9338 19.4105C53.574 20.7382 53.8088 22.2251 53.6088 23.6855Z" fill="white"/>
</svg>
