<svg width="60" height="60" viewBox="0 0 60 60" fill="none" xmlns="http://www.w3.org/2000/svg">
<path d="M40.0587 4.87769C37.5045 2.12019 33.9371 0.601562 29.9997 0.601562C26.0411 0.601562 22.462 2.11094 19.9197 4.85144C17.3499 7.62206 16.0977 11.3876 16.3917 15.4538C16.9744 23.4758 23.0789 30.0016 29.9997 30.0016C36.9204 30.0016 43.0144 23.4771 43.6064 15.4564C43.9042 11.4271 42.6442 7.66931 40.0587 4.87769Z" fill="white"/>
<path d="M53.1 59.3991H6.89997C6.29522 59.4071 5.69634 59.28 5.14697 59.0275C4.59747 58.7746 4.11134 58.4026 3.72372 57.9383C2.87059 56.9186 2.52672 55.526 2.78134 54.1177C3.88909 47.9726 7.34622 42.8105 12.7801 39.1866C17.6075 35.9698 23.7223 34.1992 30 34.1992C36.2776 34.1992 42.3926 35.9711 47.22 39.1866C52.6537 42.8092 56.1108 47.9712 57.2186 54.1165C57.4732 55.5247 57.1293 56.9173 56.2762 57.9371C55.8888 58.4016 55.4026 58.7737 54.8532 59.0267C54.3037 59.2796 53.7048 59.407 53.1 59.3991Z" fill="white"/>
</svg>
