<svg width="60" height="60" viewBox="0 0 60 60" fill="none" xmlns="http://www.w3.org/2000/svg">
<path fill-rule="evenodd" clip-rule="evenodd" d="M6.4294 28.2995C6.4294 20.937 8.49181 15.5632 12.0275 12.0275C15.5632 8.49184 20.9369 6.42943 28.2994 6.42943C35.6619 6.42943 41.0356 8.49184 44.5714 12.0275C48.1071 15.5632 50.1694 20.937 50.1694 28.2995C50.1694 35.662 48.1071 41.0358 44.5714 44.5716C41.0356 48.1074 35.6619 50.1696 28.2994 50.1696C20.9369 50.1696 15.5632 48.1074 12.0275 44.5716C8.49181 41.0358 6.4294 35.662 6.4294 28.2995ZM28.2994 1.07227C19.9508 1.07227 13.0502 3.4286 8.23943 8.23945C3.42859 13.0503 1.07227 19.9509 1.07227 28.2995C1.07227 36.6481 3.42859 43.5486 8.23943 48.3594C13.0502 53.1705 19.9508 55.5268 28.2994 55.5268C35.102 55.5268 40.9432 53.9621 45.4756 50.7804L52.5342 57.8385C53.9986 59.3029 56.3729 59.3029 57.8374 57.8381C59.3018 56.3736 59.3018 53.9994 57.8374 52.5349L50.7792 45.4772C53.9618 40.9443 55.5265 35.1027 55.5265 28.2995C55.5265 19.9509 53.1702 13.0503 48.3595 8.23945C43.5484 3.4286 36.648 1.07227 28.2994 1.07227Z" fill="white"/>
<circle cx="28.1813" cy="28.1813" r="23.6364" fill="white"/>
</svg>
